<svg width="52" height="51" viewBox="0 0 52 51" fill="none" xmlns="http://www.w3.org/2000/svg">
<g id="BulbOutlined" clip-path="url(#clip0_42_2814)">
<path id="Vector" d="M32.8301 46.9018H19.1694C18.9189 46.9018 18.714 47.1067 18.714 47.3571V49.1786C18.714 50.186 19.528 51 20.5354 51H31.464C32.4715 51 33.2854 50.186 33.2854 49.1786V47.3571C33.2854 47.1067 33.0805 46.9018 32.8301 46.9018ZM25.9997 -9.53674e-07C15.6916 -9.53674e-07 7.33008 8.36149 7.33008 18.6696C7.33008 25.5797 11.0868 31.6132 16.6649 34.8405V41.4375C16.6649 42.445 17.4789 43.2589 18.4863 43.2589H33.5131C34.5206 43.2589 35.3345 42.445 35.3345 41.4375V34.8405C40.9127 31.6132 44.6694 25.5797 44.6694 18.6696C44.6694 8.36149 36.3079 -9.53674e-07 25.9997 -9.53674e-07ZM33.2797 31.2944L31.2363 32.4783V39.1607H20.7631V32.4783L18.7197 31.2944C14.2401 28.7046 11.4283 23.9347 11.4283 18.6696C11.4283 10.6212 17.9513 4.09821 25.9997 4.09821C34.0482 4.09821 40.5712 10.6212 40.5712 18.6696C40.5712 23.9347 37.7593 28.7046 33.2797 31.2944Z" fill="black"/>
</g>
<defs>
<clipPath id="clip0_42_2814">
<rect width="51" height="51" fill="white" transform="translate(0.5)"/>
</clipPath>
</defs>
</svg>
